<?xml version="1.0" encoding="UTF-8" standalone="no"?>
<!-- Generator: Adobe Illustrator 14.0.0, SVG Export Plug-In . SVG Version: 6.00 Build 43363)  -->

<svg
   xmlns:dc="http://purl.org/dc/elements/1.1/"
   xmlns:cc="http://creativecommons.org/ns#"
   xmlns:rdf="http://www.w3.org/1999/02/22-rdf-syntax-ns#"
   xmlns:svg="http://www.w3.org/2000/svg"
   xmlns="http://www.w3.org/2000/svg"
   xmlns:sodipodi="http://sodipodi.sourceforge.net/DTD/sodipodi-0.dtd"
   xmlns:inkscape="http://www.inkscape.org/namespaces/inkscape"
   version="1.1"
   id="Layer_1"
   x="0px"
   y="0px"
   width="624.87701"
   height="624.87799"
   viewBox="0 0 624.87701 624.87799"
   enable-background="new 0 0 646 646"
   xml:space="preserve"
   inkscape:version="0.91 r13725"
   sodipodi:docname="aperturus.svg"
   inkscape:export-filename="/Users/bburton/Desktop/Skeleton-2.0.4/images/aperturus.png"
   inkscape:export-xdpi="72"
   inkscape:export-ydpi="72"><metadata
     id="metadata4222"><rdf:RDF><cc:Work
         rdf:about=""><dc:format>image/svg+xml</dc:format><dc:type
           rdf:resource="http://purl.org/dc/dcmitype/StillImage" /><dc:title /></cc:Work></rdf:RDF></metadata><defs
     id="defs4220" /><sodipodi:namedview
     pagecolor="#ffffff"
     bordercolor="#666666"
     borderopacity="1"
     objecttolerance="10"
     gridtolerance="10"
     guidetolerance="10"
     inkscape:pageopacity="0"
     inkscape:pageshadow="2"
     inkscape:window-width="1440"
     inkscape:window-height="856"
     id="namedview4218"
     showgrid="false"
     fit-margin-top="0"
     fit-margin-left="0"
     fit-margin-right="0"
     fit-margin-bottom="0"
     inkscape:zoom="1.0665635"
     inkscape:cx="323.19009"
     inkscape:cy="274.43638"
     inkscape:window-x="14"
     inkscape:window-y="0"
     inkscape:window-maximized="0"
     inkscape:current-layer="Layer_1" /><g
     id="g4200"
     style="fill:none"
     transform="translate(-11.061,-10.062)"><path
       d="m 445.73,35.592 c 67.819,28.774 117.623,75.567 151.911,137.869 -33.281,47.994 -64.773,97.778 -98.934,144.891 C 481.521,223.626 463.068,130.169 445.73,35.592 Z"
       id="path4202"
       style="clip-rule:evenodd;fill:#aa0000;fill-rule:evenodd"
       inkscape:connector-curvature="0" /><path
       d="m 11.061,331.755 c 0,-6.169 0,-12.339 0,-18.51 1.801,-29.474 5.774,-56.777 13.404,-80.423 C 82.909,221.904 140.551,210.188 198.716,198.993 144.392,280.619 90.622,362.809 35.954,444.093 22.095,412.208 13.302,375.258 11.061,331.755 Z"
       id="path4204"
       style="clip-rule:evenodd;fill:#aa0000;fill-rule:evenodd"
       inkscape:connector-curvature="0" /><path
       d="m 635.938,313.245 c 0,6.17 0,12.34 0,18.51 -1.802,29.474 -5.774,56.778 -13.404,80.424 C 563.296,422.94 505.118,434.758 446.369,446.008 501.272,364.96 556.674,281 611.684,202.185 c 13.385,31.72 22.084,68.127 24.254,111.06 z"
       id="path4206"
       style="clip-rule:evenodd;fill:#aa0000;fill-rule:evenodd"
       inkscape:connector-curvature="0" /><path
       d="m 150.207,321.542 c 18.12,95.921 35.684,192.393 52.978,289.142 C 135.378,581.685 85.08,535.177 49.997,473.454 82.689,422.106 116.73,372.107 150.207,321.542 Z"
       id="path4208"
       style="clip-rule:evenodd;fill:#aa0000;fill-rule:evenodd"
       inkscape:connector-curvature="0" /><path
       d="m 611.046,441.539 c 0.425,0 0.851,0 1.276,0 -29.56,69.589 -77.443,120.849 -141.061,156.38 -43.593,-28.461 -87.719,-58.349 -130.848,-88.082 -5.879,-4.055 -11.169,-7.956 -17.233,-12.767 96.55,-17.914 192.049,-36.883 287.866,-55.531 z"
       id="path4210"
       style="clip-rule:evenodd;fill:#aa0000;fill-rule:evenodd"
       inkscape:connector-curvature="0" /><path
       d="m 314.245,10.062 c 6.17,0 12.34,0 18.51,0 30.459,2.092 59.437,5.668 82.977,14.68 11.181,56.479 21.314,114 32.553,170.421 C 368.577,140.619 287.735,87.208 208.929,31.763 239.545,20.041 273.878,12.035 314.245,10.062 Z"
       id="path4212"
       style="clip-rule:evenodd;fill:#aa0000;fill-rule:evenodd"
       inkscape:connector-curvature="0" /><path
       d="m 314.245,634.939 c -29.966,-1.948 -58.111,-5.717 -81.7,-14.043 -9.907,-57.751 -20.655,-114.658 -31.276,-171.697 80.147,54.104 161.138,107.367 239.994,162.762 -31.418,12.411 -66.7,20.956 -108.508,22.979 -6.17,-0.001 -12.34,-0.001 -18.51,-0.001 z"
       id="path4214"
       style="clip-rule:evenodd;fill:#aa0000;fill-rule:evenodd"
       inkscape:connector-curvature="0" /><path
       d="m 97.429,106.233 c 4.388,-4.337 8.777,-8.673 13.166,-13.011 22.23,-19.436 44.443,-35.803 66.625,-46.997 48.846,33.897 97.697,66.661 146.545,100.163 -96.244,18.736 -192.5,38.264 -288.742,56.515 12.937,-32.27 33.039,-64.498 62.406,-96.67 z"
       id="path4216"
       style="clip-rule:evenodd;fill:#aa0000;fill-rule:evenodd"
       inkscape:connector-curvature="0" /></g><path
     style="fill:#a0a0a0;stroke:none;stroke-width:1px;stroke-linecap:butt;stroke-linejoin:miter;stroke-opacity:1"
     d="m 274.39556,300.43985 c 0,-3.82833 36.89355,-95.92126 37.98854,-94.82625 1.22357,1.22356 22.95749,56.84971 32.3749,82.86084 l 4.88567,13.49435 -37.62456,0 c -20.69351,0 -37.62455,-0.68802 -37.62455,-1.52894 z"
     id="path4731"
     inkscape:connector-curvature="0" /><path
     style="fill:#a0a0a0;stroke:none;stroke-width:1px;stroke-linecap:butt;stroke-linejoin:miter;stroke-opacity:1"
     d=""
     id="path4733"
     inkscape:connector-curvature="0" /><path
     style="fill:#a0a0a0;stroke:none;stroke-width:1px;stroke-linecap:butt;stroke-linejoin:miter;stroke-opacity:1"
     d="m 411.98686,355.94621 c -22.18709,-54.90698 -55.22099,-144.74422 -53.76063,-146.20457 3.90911,-3.90912 23.84303,9.89094 39.59578,27.41179 9.6811,10.76772 18.99845,25.95023 22.72747,37.03413 7.68489,22.84206 7.92111,60.85972 0.48565,78.16014 l -5.41303,12.59473 -3.63524,-8.99622 z"
     id="path4735"
     inkscape:connector-curvature="0" /><path
     style="fill:#a0a0a0;stroke:none;stroke-width:1px;stroke-linecap:butt;stroke-linejoin:miter;stroke-opacity:1"
     d="m 290.06718,427.85054 c -14.87713,-3.02079 -49.62793,-18.90676 -52.84132,-24.15587 -0.93175,-1.52202 3.37529,-16.16687 9.57118,-32.54412 l 11.26523,-29.77683 53.87364,0.98887 53.87364,0.98888 10.20254,26.74605 c 5.61141,14.71034 9.38746,28.87014 8.39124,31.46624 -6.60384,17.20937 -62.42992,32.76531 -94.33615,26.28678 z"
     id="path4737"
     inkscape:connector-curvature="0" /><path
     style="fill:#a0a0a0;stroke:none;stroke-width:1px;stroke-linecap:butt;stroke-linejoin:miter;stroke-opacity:1"
     d="m 201.19577,350.58557 c -12.10497,-35.52611 -5.12141,-77.7329 17.83671,-107.80021 13.02445,-17.05761 45.36152,-40.99183 47.34475,-35.04213 0.57532,1.72592 -11.33542,35.37281 -26.46826,74.77088 -15.13286,39.39805 -28.69146,74.77182 -30.13021,78.60835 -2.11557,5.64129 -3.75725,3.62587 -8.58299,-10.53689 z"
     id="path4739"
     inkscape:connector-curvature="0" /><circle
     style="opacity:0.54000005;fill:#241c1c;fill-opacity:1;fill-rule:evenodd"
     id="path4745"
     cx="311.28006"
     cy="310.78513"
     r="154.73523" /><path
     style="opacity:1;fill:#ffffff;fill-opacity:1;fill-rule:evenodd;stroke:#ffffff;stroke-width:0.93759066"
     d="m 405.43232,338.95356 c -25.14563,-63.56316 -48.03561,-127.5412 -46.26502,-129.3118 1.46292,-1.46292 10.64564,3.03151 18.54065,9.07462 9.58002,7.33287 24.517,23.11956 30.7033,32.44988 13.89415,20.95552 18.30099,38.96277 17.25902,70.52401 -0.29319,8.88049 -1.12917,18.48573 -1.86518,21.43037 -1.45861,5.83568 -7.25176,20.44879 -8.10499,20.44468 -0.2928,-0.002 -4.9133,-11.0767 -10.26778,-24.61176 z"
     id="path4219"
     inkscape:connector-curvature="0" /><path
     style="opacity:1;fill:#ffffff;fill-opacity:1;fill-rule:evenodd;stroke:#ffffff;stroke-width:0.93759066"
     d="m 278.98269,301.00039 c -2.37337,-0.21376 -3.98476,-0.83326 -3.98476,-1.53191 0,-4.67783 36.24073,-94.12511 37.58377,-92.76211 1.41572,1.43677 32.61859,82.01652 35.96238,92.87095 l 0.64987,2.10958 -33.11325,-0.16381 c -18.21229,-0.0901 -34.90639,-0.3253 -37.09801,-0.5227 z"
     id="path4221"
     inkscape:connector-curvature="0" /><path
     style="opacity:1;fill:#ffffff;fill-opacity:1;fill-rule:evenodd;stroke:#ffffff;stroke-width:0.93759066"
     d="m 205.31131,361.04931 c -2.20965,-4.3101 -6.89756,-19.92846 -8.24953,-27.48433 -1.9503,-10.89982 -1.508,-31.39228 0.92551,-42.87946 4.5703,-21.57379 14.12296,-40.84661 27.21179,-54.90073 13.21536,-14.18998 37.53579,-31.11914 40.47841,-28.17653 1.11027,1.11027 -4.84975,18.6195 -20.61767,60.57022 -23.41822,62.30445 -36.13861,94.76921 -37.27902,95.14294 -0.61435,0.20134 -1.72562,-0.82111 -2.46949,-2.27211 z"
     id="path4223"
     inkscape:connector-curvature="0" /><path
     style="opacity:1;fill:#ffffff;fill-opacity:1;fill-rule:evenodd;stroke:#ffffff;stroke-width:0.93759066"
     d="m 291.40576,427.89262 c -11.77029,-2.28264 -38.25802,-13.26186 -49.06841,-20.33896 -3.91103,-2.56038 -4.84305,-3.67225 -4.84305,-5.77759 0,-3.22346 7.26753,-25.2474 14.92848,-45.24012 l 5.74836,-15.00145 15.67972,0.27645 c 8.62385,0.15204 32.67729,0.57396 53.45209,0.93759 32.06498,0.56125 37.90535,0.87365 38.65244,2.06753 1.94285,3.10477 14.93363,39.43386 16.79974,46.98093 2.37802,9.61742 1.99971,11.16314 -4.03144,16.47198 -8.48003,7.46442 -23.51549,13.63037 -43.14574,17.69379 -14.18056,2.93535 -34.42638,3.81987 -44.17219,1.92985 z"
     id="path4225"
     inkscape:connector-curvature="0" /></svg>