<?xml version="1.0" encoding="UTF-8" standalone="no"?>
<!-- Generator: Adobe Illustrator 14.0.0, SVG Export Plug-In . SVG Version: 6.00 Build 43363)  -->

<svg
   xmlns:dc="http://purl.org/dc/elements/1.1/"
   xmlns:cc="http://creativecommons.org/ns#"
   xmlns:rdf="http://www.w3.org/1999/02/22-rdf-syntax-ns#"
   xmlns:svg="http://www.w3.org/2000/svg"
   xmlns="http://www.w3.org/2000/svg"
   xmlns:sodipodi="http://sodipodi.sourceforge.net/DTD/sodipodi-0.dtd"
   xmlns:inkscape="http://www.inkscape.org/namespaces/inkscape"
   version="1.1"
   id="Layer_1"
   x="0px"
   y="0px"
   width="624.87701"
   height="624.87799"
   viewBox="0 0 624.87701 624.87799"
   enable-background="new 0 0 646 646"
   xml:space="preserve"
   inkscape:version="0.91 r13725"
   sodipodi:docname="aperturus_noA.svg"
   inkscape:export-filename="/Users/bburton/Desktop/Skeleton-2.0.4/images/aperturus.png"
   inkscape:export-xdpi="72"
   inkscape:export-ydpi="72"><metadata
     id="metadata4222"><rdf:RDF><cc:Work
         rdf:about=""><dc:format>image/svg+xml</dc:format><dc:type
           rdf:resource="http://purl.org/dc/dcmitype/StillImage" /><dc:title></dc:title></cc:Work></rdf:RDF></metadata><defs
     id="defs4220" /><sodipodi:namedview
     pagecolor="#ffffff"
     bordercolor="#666666"
     borderopacity="1"
     objecttolerance="10"
     gridtolerance="10"
     guidetolerance="10"
     inkscape:pageopacity="0"
     inkscape:pageshadow="2"
     inkscape:window-width="1440"
     inkscape:window-height="856"
     id="namedview4218"
     showgrid="false"
     fit-margin-top="0"
     fit-margin-left="0"
     fit-margin-right="0"
     fit-margin-bottom="0"
     inkscape:zoom="1.0665635"
     inkscape:cx="174.11317"
     inkscape:cy="274.43638"
     inkscape:window-x="18"
     inkscape:window-y="23"
     inkscape:window-maximized="0"
     inkscape:current-layer="Layer_1" /><g
     id="g4200"
     style="fill:none"
     transform="translate(-11.061,-10.062)"><path
       d="m 445.73,35.592 c 67.819,28.774 117.623,75.567 151.911,137.869 -33.281,47.994 -64.773,97.778 -98.934,144.891 C 481.521,223.626 463.068,130.169 445.73,35.592 Z"
       id="path4202"
       style="clip-rule:evenodd;fill:#aa0000;fill-rule:evenodd"
       inkscape:connector-curvature="0" /><path
       d="m 11.061,331.755 c 0,-6.169 0,-12.339 0,-18.51 1.801,-29.474 5.774,-56.777 13.404,-80.423 C 82.909,221.904 140.551,210.188 198.716,198.993 144.392,280.619 90.622,362.809 35.954,444.093 22.095,412.208 13.302,375.258 11.061,331.755 Z"
       id="path4204"
       style="clip-rule:evenodd;fill:#aa0000;fill-rule:evenodd"
       inkscape:connector-curvature="0" /><path
       d="m 635.938,313.245 c 0,6.17 0,12.34 0,18.51 -1.802,29.474 -5.774,56.778 -13.404,80.424 C 563.296,422.94 505.118,434.758 446.369,446.008 501.272,364.96 556.674,281 611.684,202.185 c 13.385,31.72 22.084,68.127 24.254,111.06 z"
       id="path4206"
       style="clip-rule:evenodd;fill:#aa0000;fill-rule:evenodd"
       inkscape:connector-curvature="0" /><path
       d="m 150.207,321.542 c 18.12,95.921 35.684,192.393 52.978,289.142 C 135.378,581.685 85.08,535.177 49.997,473.454 82.689,422.106 116.73,372.107 150.207,321.542 Z"
       id="path4208"
       style="clip-rule:evenodd;fill:#aa0000;fill-rule:evenodd"
       inkscape:connector-curvature="0" /><path
       d="m 611.046,441.539 c 0.425,0 0.851,0 1.276,0 -29.56,69.589 -77.443,120.849 -141.061,156.38 -43.593,-28.461 -87.719,-58.349 -130.848,-88.082 -5.879,-4.055 -11.169,-7.956 -17.233,-12.767 96.55,-17.914 192.049,-36.883 287.866,-55.531 z"
       id="path4210"
       style="clip-rule:evenodd;fill:#aa0000;fill-rule:evenodd"
       inkscape:connector-curvature="0" /><path
       d="m 314.245,10.062 c 6.17,0 12.34,0 18.51,0 30.459,2.092 59.437,5.668 82.977,14.68 11.181,56.479 21.314,114 32.553,170.421 C 368.577,140.619 287.735,87.208 208.929,31.763 239.545,20.041 273.878,12.035 314.245,10.062 Z"
       id="path4212"
       style="clip-rule:evenodd;fill:#aa0000;fill-rule:evenodd"
       inkscape:connector-curvature="0" /><path
       d="m 314.245,634.939 c -29.966,-1.948 -58.111,-5.717 -81.7,-14.043 -9.907,-57.751 -20.655,-114.658 -31.276,-171.697 80.147,54.104 161.138,107.367 239.994,162.762 -31.418,12.411 -66.7,20.956 -108.508,22.979 -6.17,-0.001 -12.34,-0.001 -18.51,-0.001 z"
       id="path4214"
       style="clip-rule:evenodd;fill:#aa0000;fill-rule:evenodd"
       inkscape:connector-curvature="0" /><path
       d="m 97.429,106.233 c 4.388,-4.337 8.777,-8.673 13.166,-13.011 22.23,-19.436 44.443,-35.803 66.625,-46.997 48.846,33.897 97.697,66.661 146.545,100.163 -96.244,18.736 -192.5,38.264 -288.742,56.515 12.937,-32.27 33.039,-64.498 62.406,-96.67 z"
       id="path4216"
       style="clip-rule:evenodd;fill:#aa0000;fill-rule:evenodd"
       inkscape:connector-curvature="0" /></g><path
     style="fill:#a0a0a0;stroke:none;stroke-width:1px;stroke-linecap:butt;stroke-linejoin:miter;stroke-opacity:1"
     d=""
     id="path4733"
     inkscape:connector-curvature="0" /></svg>