<?xml version="1.0" encoding="UTF-8" standalone="no"?>
<!-- Created with Inkscape (http://www.inkscape.org/) -->

<svg
   xmlns:dc="http://purl.org/dc/elements/1.1/"
   xmlns:cc="http://creativecommons.org/ns#"
   xmlns:rdf="http://www.w3.org/1999/02/22-rdf-syntax-ns#"
   xmlns:svg="http://www.w3.org/2000/svg"
   xmlns="http://www.w3.org/2000/svg"
   xmlns:sodipodi="http://sodipodi.sourceforge.net/DTD/sodipodi-0.dtd"
   xmlns:inkscape="http://www.inkscape.org/namespaces/inkscape"
   id="svg2"
   version="1.1"
   inkscape:version="0.91 r13725"
   width="1019.8906"
   height="236.49632"
   viewBox="0 0 1019.8906 236.49632"
   sodipodi:docname="camera.svg">
  <metadata
     id="metadata8">
    <rdf:RDF>
      <cc:Work
         rdf:about="">
        <dc:format>image/svg+xml</dc:format>
        <dc:type
           rdf:resource="http://purl.org/dc/dcmitype/StillImage" />
        <dc:title />
      </cc:Work>
    </rdf:RDF>
  </metadata>
  <defs
     id="defs6" />
  <sodipodi:namedview
     pagecolor="#ffffff"
     bordercolor="#666666"
     borderopacity="1"
     objecttolerance="10"
     gridtolerance="10"
     guidetolerance="10"
     inkscape:pageopacity="0"
     inkscape:pageshadow="2"
     inkscape:window-width="1544"
     inkscape:window-height="741"
     id="namedview4"
     showgrid="false"
     inkscape:zoom="1.0148148"
     inkscape:cx="399.14"
     inkscape:cy="177.86128"
     inkscape:window-x="83"
     inkscape:window-y="0"
     inkscape:window-maximized="0"
     inkscape:current-layer="svg2"
     fit-margin-top="0"
     fit-margin-left="0"
     fit-margin-right="0"
     fit-margin-bottom="0" />
  <flowRoot
     xml:space="preserve"
     id="flowRoot3354"
     style="font-style:normal;font-variant:normal;font-weight:normal;font-stretch:normal;font-size:40px;line-height:125%;font-family:'American Typewriter';-inkscape-font-specification:'American Typewriter';letter-spacing:0px;word-spacing:0px;fill:#000000;fill-opacity:1;stroke:none;stroke-width:1px;stroke-linecap:butt;stroke-linejoin:miter;stroke-opacity:1"
     transform="matrix(1.1615346,0,0,1.6173284,-32.768522,-37.513208)"><flowRegion
       id="flowRegion3356"><rect
         id="rect3358"
         width="244.37956"
         height="76.861313"
         x="530.146"
         y="31.525547"
         style="font-style:normal;font-variant:normal;font-weight:normal;font-stretch:normal;font-family:'American Typewriter';-inkscape-font-specification:'American Typewriter'" /></flowRegion><flowPara
       id="flowPara3360" /></flowRoot>  <flowRoot
     xml:space="preserve"
     id="flowRoot3374"
     style="font-style:normal;font-weight:normal;font-size:40px;line-height:125%;font-family:sans-serif;letter-spacing:0px;word-spacing:0px;fill:#000000;fill-opacity:1;stroke:none;stroke-width:1px;stroke-linecap:butt;stroke-linejoin:miter;stroke-opacity:1"
     transform="translate(19.708027,-42.36496)"><flowRegion
       id="flowRegion3376"><rect
         id="rect3378"
         width="312.37225"
         height="82.77372"
         x="433.57663"
         y="105.43066" /></flowRegion><flowPara
       id="flowPara3380" /></flowRoot>  <rect
     style="fill:#800000;fill-opacity:1"
     id="rect3434"
     width="1019.8906"
     height="236.49632"
     x="0"
     y="0" />
  <rect
     style="fill:#ffffff;fill-opacity:1"
     id="rect3438"
     width="988.35767"
     height="199.0511"
     x="13.795607"
     y="20.693439" />
  <text
     xml:space="preserve"
     style="font-style:normal;font-variant:normal;font-weight:normal;font-stretch:normal;font-size:58.75109863px;line-height:125%;font-family:'American Typewriter';-inkscape-font-specification:'American Typewriter';letter-spacing:0px;word-spacing:0px;fill:#000000;fill-opacity:1;stroke:none;stroke-width:1px;stroke-linecap:butt;stroke-linejoin:miter;stroke-opacity:1"
     x="366.16861"
     y="83.481308"
     id="text3338"
     sodipodi:linespacing="125%"
     transform="scale(0.80107812,1.2483177)"><tspan
       sodipodi:role="line"
       x="366.16861"
       y="83.481308"
       id="tspan3364"
       style="font-style:normal;font-variant:normal;font-weight:normal;font-stretch:normal;font-size:53.58099747px;font-family:'Bodoni SvtyTwo ITC TT';-inkscape-font-specification:'Bodoni SvtyTwo ITC TT'"><tspan
   id="tspan3347"
   style="font-size:77.69245148px;font-family:'American Typewriter';-inkscape-font-specification:'American Typewriter'">More Shots in the Dark</tspan></tspan><tspan
       sodipodi:role="line"
       x="366.16861"
       y="156.67476"
       style="font-style:normal;font-variant:normal;font-weight:normal;font-stretch:normal;font-size:53.58099747px;font-family:'Bodoni SvtyTwo ITC TT';-inkscape-font-specification:'Bodoni SvtyTwo ITC TT'"
       id="tspan3349">A site for sharing personal photography</tspan></text>
  <g
     id="g3351">
    <path
       style="fill:#eeeeee"
       d="m 12.810216,120.21899 0,-101.000003 135.000004,0 135,0 0,101.000003 0,101 -135,0 -135.000004,0 0,-101 z"
       id="path3367"
       inkscape:connector-curvature="0" />
    <path
       style="fill:#d0d0d0"
       d="m 12.810216,120.21899 0,-101.000003 135.000004,0 135,0 0,101.000003 0,101 -135,0 -135.000004,0 0,-101 z m 156.209214,29.09878 c 2.62009,-0.93929 0.65504,-3.10323 -3.81292,-4.19883 -2.14296,-0.52548 -7.72129,-1.40052 -12.39629,-1.94453 -4.675,-0.544 -9.9625,-1.25759 -11.75,-1.58576 -2.55263,-0.46863 -3.25,-0.25595 -3.25,0.99116 0,1.87519 4.37803,4.31989 11.98802,6.69415 5.28028,1.6474 14.68829,1.66884 19.22119,0.0438 z M 54.810216,136.21899 c 2.596265,-2.59627 2.529993,-4.51537 -0.222506,-6.4433 -3.309561,-2.3181 -6.072073,-2.0602 -5.262263,0.49129 0.357503,1.12639 0.112483,2.69566 -0.544488,3.48726 -3.160792,3.80852 2.40869,6.08532 6.029257,2.46475 z m 0.285183,-13.33141 c 1.364363,-0.82018 5.958461,-1.40759 11.964295,-1.52979 8.182719,-0.16649 10.292072,-0.55516 13.125878,-2.41859 1.857019,-1.22112 4.208961,-2.71245 5.226536,-3.31407 1.784305,-1.05494 1.779681,-1.13156 -0.129954,-2.15357 -1.089051,-0.58284 -7.153257,-1.56098 -13.476015,-2.17364 -17.406876,-1.68669 -27.650507,-4.41288 -28.692311,-7.63604 -0.192961,-0.59699 3.257532,-1.84228 7.927352,-2.86101 4.54797,-0.992142 10.488212,-2.428944 13.200537,-3.19289 7.358891,-2.072685 15.139407,-1.839696 16.77993,0.502479 1.568977,2.240031 13.725859,9.108531 16.121615,9.108531 5.470918,0 -3.28834,-10.338187 -9.793201,-11.558506 -3.077845,-0.577407 -3.541671,-1.0216 -3.309665,-3.169565 0.184353,-1.706778 -0.534659,-3.107872 -2.269926,-4.423264 -2.440425,-1.849927 -2.870596,-1.863361 -11,-0.343525 -4.65314,0.869929 -11.385254,2.298821 -14.960254,3.175316 -8.190756,2.008154 -10.629099,1.965177 -13.054851,-0.230099 -2.366955,-2.142064 -1.192764,-4.017427 3.106608,-4.961728 1.602459,-0.351959 5.058865,-2.436391 7.680902,-4.632071 6.075679,-5.08774 10.894052,-7.583155 17.291396,-8.95514 4.376364,-0.938562 5.047059,-1.393803 4.783033,-3.246528 -0.484343,-3.398723 -5.968275,-3.299727 -14.609758,0.263735 -4.014337,1.655379 -8.850965,3.30097 -10.748062,3.656867 -1.897098,0.355898 -3.449268,1.098991 -3.449268,1.651319 0,1.451915 -7.556537,8.270989 -14.362408,12.960742 -5.572349,3.839763 -5.83504,4.208288 -5.309265,7.448263 0.359741,2.216819 -0.02164,4.410132 -1.09077,6.272984 -1.606337,2.79888 -1.572713,2.94544 1.471023,6.41207 1.713215,1.95124 3.409638,4.47624 3.769828,5.6111 0.360446,1.13566 1.861356,2.34316 3.338242,2.68564 1.475843,0.34225 3.13335,1.13698 3.68335,1.76608 2.468126,2.82307 9.494353,6.27683 13.285183,6.53036 0.706851,0.0473 2.281851,-0.51319 3.5,-1.24546 z M 124.3197,107.20851 c 1.76644,-1.9519 1.75131,-2.08302 -0.51932,-4.5 -1.28634,-1.36924 -3.4416,-2.48952 -4.78947,-2.48952 -2.22918,0 -2.39298,0.29375 -1.81222,3.25 0.57048,2.90389 2.87096,5.75 4.64767,5.75 0.35964,0 1.47264,-0.90472 2.47334,-2.01048 z m 88.59432,-12.285724 c -1.28349,-1.283486 -2.58505,-0.291503 -1.63484,1.245982 0.36808,0.595563 1.12735,0.799712 1.68727,0.453663 0.683,-0.422119 0.66575,-0.981465 -0.0524,-1.699645 z M 96.709267,84.840624 C 100.20623,80.627041 86.905466,68.53862 82.54723,71.969432 c -0.680358,0.535579 -2.474514,1.269403 -3.987014,1.63072 -5.344842,1.276813 -3.096446,4.427019 6.75,9.457362 6.627243,3.38572 9.673527,3.862238 11.399051,1.78311 z M 75.255678,52.842372 c 9.907993,-2.072725 11.389685,-2.159541 15.632078,-0.91592 6.479766,1.899487 22.422464,1.39647 22.422464,-0.707465 0,-1.026254 -1.57916,-1.753642 -5,-2.303094 -2.75,-0.441702 -6.35,-1.264277 -8,-1.827944 -6.332625,-2.163328 -19.523468,-2.156212 -28.434149,0.01534 -8.857108,2.158495 -11.740633,3.914874 -10.733984,6.538159 0.758489,1.976591 0.87768,1.969843 14.113591,-0.799074 z"
       id="path3365"
       inkscape:connector-curvature="0" />
    <path
       style="fill:#afafaf"
       d="m 12.810216,120.21899 0,-101.000003 135.000004,0 135,0 0,101.000003 0,101 -135,0 -135.000004,0 0,-101 z M 128.6774,155.55895 c -1.12179,-1.35167 -1.40307,-1.32757 -2.53253,0.21706 -1.71047,2.33921 -0.68449,3.70058 1.79061,2.37595 1.65938,-0.88808 1.78693,-1.33385 0.74192,-2.59301 z m 31.13282,-0.83996 c 1.65604,-0.94668 5.62265,-1.44109 11.75,-1.46456 5.0875,-0.0195 9.25,-0.45164 9.25,-0.96033 0,-0.50869 -2.5875,-2.35747 -5.75,-4.10839 -5.77342,-3.19647 -16.61465,-5.96334 -23.37427,-5.96554 -1.99335,-6.5e-4 -5.53743,-0.67618 -7.87573,-1.50118 -7.31604,-2.58125 -12,-1.58785 -12,2.54501 0,2.61199 3.04324,4.66216 9.35029,6.29911 3.21766,0.83512 7.49266,2.64728 9.5,4.02703 4.23073,2.90799 5.71672,3.09132 9.14971,1.12885 z M 53.816618,138.21572 c 5.272541,-2.68985 6.500465,-5.11588 4.523948,-8.93804 -1.854957,-3.58709 -1.966357,-6.02871 -0.28035,-6.14463 0.6875,-0.0473 6.03401,-0.0142 11.881134,0.0734 10.188449,0.15272 10.738293,0.0522 13.204546,-2.41406 1.415376,-1.41536 3.268865,-2.5734 4.118865,-2.5734 1.965193,0 2.012655,-3.36737 0.07019,-4.97948 -0.811399,-0.6734 -5.198899,-1.63399 -9.75,-2.13465 -16.798625,-1.84798 -24.276882,-3.09418 -26.991488,-4.49796 -4.902193,-2.53502 -3.854097,-3.30538 6.716753,-4.93687 2.2,-0.33954 6.18344,-1.30635 8.85209,-2.148472 6.606747,-2.08482 9.736559,-1.356103 20.182063,4.699012 8.861624,5.13696 16.465851,7.48319 16.465851,5.08043 0,-2.74415 -3.349364,-7.25672 -8.500776,-11.453028 -3.030615,-2.468722 -6.681277,-5.880319 -8.11258,-7.581327 -1.431304,-1.701008 -3.388252,-3.513332 -4.348772,-4.027388 -1.507856,-0.806979 -14.9023,1.071622 -33.287876,4.6687 -4.089482,0.800094 -3.597854,-2.254049 0.585055,-3.634533 1.83428,-0.605367 4.64678,-2.491943 6.25,-4.192392 4.788134,-5.078515 15.18625,-8.659133 16.933973,-5.831258 1.216321,1.968049 22.464245,11.969213 25.429132,11.969213 1.927173,0 3.348584,-0.685945 4.019624,-1.939798 1.74914,-3.268306 -7.900991,-12.727521 -18.379016,-18.015404 -8.938696,-4.511039 -10.037349,-4.718965 -19.010518,-3.597842 -5.874146,0.733926 -6.543392,0.224946 -4.564965,-3.47178 1.225679,-2.290202 8.658342,-5.721757 15.486715,-7.149997 2.75,-0.575197 12.466493,-0.977004 21.592208,-0.892904 13.802866,0.127202 16.805656,-0.104279 17.861876,-1.376949 2.20583,-2.657853 0.50145,-4.226425 -5.3381,-4.912748 -3.05822,-0.359434 -8.14245,-1.326055 -11.29829,-2.148047 -7.192784,-1.873482 -15.862086,-1.908366 -23.173349,-0.09325 -3.10439,0.770706 -7.338483,1.692343 -9.409097,2.04808 -4.218157,0.724697 -8.088493,5.049105 -15.235248,17.022671 -6.777571,11.355042 -11.026144,16.496364 -17.92292,21.689048 -8.119675,6.113423 -9.338285,7.972976 -9.374502,14.305133 -0.02441,4.26828 0.519853,5.67365 3.872743,10 5.827108,7.51892 10.1754,11.52303 12.519691,11.52871 4.158391,0.0101 8.087749,7.41248 6.16951,11.62255 -1.052576,2.31016 -0.919641,2.8385 1.132223,4.5 2.836346,2.29674 2.354996,2.30491 7.109657,-0.12074 z M 124.98148,108.564 c 1.00581,-0.91024 1.82874,-2.17197 1.82874,-2.80383 0,-1.85892 -6.26507,-7.232212 -9.25,-7.933341 -1.5125,-0.35527 -2.75,-1.05523 -2.75,-1.555465 0,-0.500236 -0.72268,-1.632196 -1.60595,-2.515466 -1.23993,-1.239925 -1.92367,-1.342256 -3,-0.448984 -2.15736,1.790449 -1.65314,4.696208 1.13151,6.520783 1.67484,1.097393 2.33813,2.245423 1.96909,3.408143 -0.37016,1.16626 0.48405,2.62888 2.55116,4.36824 3.57819,3.01085 6.51754,3.32004 9.12545,0.95992 z m 90.36387,-9.401848 c 1.14185,-1.847563 -0.46228,-5.785267 -2.63812,-6.475852 -3.19608,-1.014399 -4.41842,0.859688 -2.92005,4.477052 1.26274,3.048538 4.24629,4.121458 5.55817,1.9988 z M 173.06022,72.556706 c -0.6875,-0.277412 -1.8125,-0.277412 -2.5,0 -0.6875,0.277413 -0.125,0.504386 1.25,0.504386 1.375,0 1.9375,-0.226973 1.25,-0.504386 z"
       id="path3363"
       inkscape:connector-curvature="0" />
    <path
       style="fill:#8f8f8f"
       d="m 12.810216,120.21899 0,-101.000003 135.000004,0 135,0 0,101.000003 0,101 -135,0 -135.000004,0 0,-101 z M 130.64558,159.8122 c 1.14953,-1.14953 1.09464,-1.7704 -0.35162,-3.97768 -0.94257,-1.43854 -2.28814,-2.61553 -2.99017,-2.61553 -1.06031,0 -4.49357,6.60529 -4.49357,8.64524 0,1.05066 6.4119,-0.62857 7.83536,-2.05203 z m 27.44619,-2.76598 c 4.75043,-1.65984 8.20408,-2.12815 14.6295,-1.98373 4.62608,0.10397 9.27144,-0.084 10.32303,-0.41779 1.78256,-0.56577 1.80061,-0.7299 0.26665,-2.4249 -0.90492,-0.99993 -3.07529,-2.38201 -4.82302,-3.07127 -1.74774,-0.68927 -4.07771,-2.01114 -5.17771,-2.93748 -2.14364,-1.80524 -16.88276,-4.98573 -23.1796,-5.00183 -2.10122,-0.005 -6.10266,-1.07249 -8.89208,-2.37138 -4.56294,-2.12471 -5.33906,-2.22151 -7.73729,-0.96495 -3.09086,1.61947 -4.33292,5.2782 -2.7781,8.18342 1.50331,2.80895 6.3089,6.05705 10.07623,6.81051 1.81286,0.36257 4.05805,1.84958 5.27222,3.49183 2.53782,3.43259 3.93517,3.51252 12.02017,0.68757 z m 82.48953,1.53697 c 1.8414,-0.49336 2.04565,-0.8801 1.0796,-2.04412 -1.99966,-2.40944 -7.38643,-4.14988 -18.39671,-5.94387 -10.0783,-1.64214 -13.40195,-1.31682 -11.66233,1.14152 1.38594,1.95853 12.80355,5.96632 18.70836,6.56696 3.3,0.33569 6.45,0.67281 7,0.74917 0.55,0.0764 2.02198,-0.13499 3.27108,-0.46966 z M 44.517359,144.49756 c -1.609524,-1.60952 -1.707143,-1.59005 -1.707143,0.34048 0,2.62085 1.080048,3.7009 2.390476,2.39047 0.698413,-0.69841 0.481229,-1.56639 -0.683333,-2.73095 z m 19.292857,-0.17158 c 0,-1.25428 -2.959706,-2.24993 -4.273866,-1.43773 -0.681577,0.42124 -0.365114,0.96094 0.840242,1.43296 2.667317,1.04453 3.433624,1.04559 3.433624,0.005 z m -8.183278,-5.8513 c 2.025803,-1.50937 4.013887,-3.19687 4.417965,-3.75 1.199619,-1.64212 0.807026,-5.86655 -0.734457,-7.90301 -2.026803,-2.67762 -0.968906,-3.68146 3.310126,-3.14098 2.029304,0.25632 7.569739,0.72611 12.312078,1.04398 8.115414,0.54397 8.654159,0.45663 9.161957,-1.48519 0.298998,-1.14337 1.916213,-2.54306 3.627567,-3.13964 3.669096,-1.27906 3.880866,-2.87378 0.838042,-6.31084 -2.057064,-2.32358 -3.45049,-2.6685 -16.25,-4.02249 -14.400268,-1.52331 -21.5,-3.00519 -21.5,-4.48754 0,-1.21438 2.650151,-2.05998 6.456061,-2.05998 1.810867,0 5.20564,-0.675 7.543939,-1.5 2.338299,-0.825 5.657376,-1.4964 7.375727,-1.492 3.236107,0.008 12.748142,4.43551 25.490839,11.86428 8.724548,5.08627 10.529178,4.58803 7.566878,-2.08911 -1.12267,-2.53056 -5.587501,-7.93248 -10.911475,-13.201624 -8.602307,-8.513707 -9.949779,-11.406962 -3.83976,-8.244632 3.703692,1.9169 15.711475,11.789066 18.791265,15.449196 1.33389,1.58523 4.39249,3.92586 6.7969,5.20139 5.23716,2.77831 8.84785,2.2432 10.58465,-1.56865 1.11516,-2.44751 0.89439,-2.91537 -3.19637,-6.77397 -2.41685,-2.279688 -6.77655,-5.944883 -9.68822,-8.144883 -2.91168,-2.2 -9.18123,-7.661552 -13.932336,-12.136781 C 90.293642,71.58234 79.345818,65.216511 71.810216,64.278897 c -3.674225,-0.457163 -4.557789,-0.966311 -4.814919,-2.774564 -0.234388,-1.64832 0.277055,-2.326349 2,-2.651438 1.273205,-0.24023 5.914919,-1.233215 10.314919,-2.206632 5.78008,-1.278733 11.60737,-1.713581 21.000004,-1.567074 7.15,0.111525 13.48282,-0.148896 14.07294,-0.578714 1.81803,-1.324177 2.5205,-4.463971 1.32187,-5.908236 -0.63,-0.759102 -2.98859,-1.373252 -5.27386,-1.373252 -2.27379,0 -5.70619,-0.467218 -7.62756,-1.038262 -6.122115,-1.819536 -18.8816,-2.92603 -23.288552,-2.019568 -2.312663,0.47569 -6.904842,1.398061 -10.204842,2.049715 -3.3,0.651653 -7.038549,1.685046 -8.307886,2.296428 -1.269337,0.611383 -5.400901,6.084124 -9.181255,12.161646 -9.993652,16.066395 -12.705276,19.647682 -17.83126,23.550041 -2.528603,1.925 -6.355895,5.187013 -8.505094,7.248918 -3.867843,3.710742 -3.903498,3.813879 -3.501419,10.128415 0.350083,5.49795 0.864535,6.90149 3.722955,10.15705 1.824207,2.07765 3.762885,5.05737 4.308174,6.62159 0.54529,1.56422 1.34493,2.84403 1.776979,2.84403 0.432049,0 1.020899,0.9 1.308555,2 0.393399,1.50436 1.364016,2 3.916631,2 1.866491,0 3.93362,0.54 4.59362,1.2 1.453137,1.45314 1.59259,4.8 0.2,4.8 -3.017077,0 0.931775,8.65682 4.238966,9.29282 4.708296,0.90544 5.995965,0.63156 9.577756,-2.03713 z M 54.825529,87.480805 c 0.044,-2.188828 5.5649,-6.304831 10.870251,-8.104104 2.971482,-1.007758 4.116483,-0.820174 9.361597,1.533693 7.7708,3.487327 7.323471,3.672648 -16.497161,6.834473 -2.0625,0.273765 -3.743109,0.154937 -3.734687,-0.264062 z m 40.078467,38.431965 c -0.773231,-0.77323 -1.405685,-0.78188 -2.158066,-0.0295 -0.752381,0.75238 -0.532582,1.59599 0.75,2.87859 1.733914,1.73393 1.829515,1.73524 2.158066,0.0295 0.189079,-0.98164 -0.148421,-2.27701 -0.75,-2.87859 z M 231.81022,112.778 c 0,-0.24254 -0.45,-0.71909 -1,-1.05901 -0.55,-0.33992 -1,-0.14148 -1,0.44098 0,0.58246 0.45,1.05902 1,1.05902 0.55,0 1,-0.19844 1,-0.44099 z m -13.32334,-12.15878 c 0.63814,-1.662964 -3.14744,-7.983175 -5.26934,-8.797423 -2.67169,-1.025224 -5.59556,1.220104 -4.82869,3.708093 1.82053,5.90642 3.19278,7.37626 6.44141,6.89946 1.72633,-0.25337 3.37181,-1.06793 3.65662,-1.81013 z M 156.0699,76.218987 c 4.07218,-1.431257 8.3279,-2.010077 14.96534,-2.035435 8.54854,-0.03266 9.07917,-0.147369 6.77498,-1.464565 -5.10031,-2.915599 -20.29835,-0.845879 -26.00951,3.542062 -3.14601,2.417109 -2.71553,2.412868 4.26919,-0.04206 z M 225.07925,58.56305 c -0.67703,-0.273923 -2.02703,-0.290597 -3,-0.03705 -0.97297,0.253544 -0.41903,0.477663 1.23097,0.498042 1.65,0.02038 2.44606,-0.187065 1.76903,-0.460988 z"
       id="path3361"
       inkscape:connector-curvature="0" />
    <path
       style="fill:#6e6e6e"
       d="m 12.810216,120.21899 0,-101.000003 135.000004,0 135,0 0,101.000003 0,101 -135,0 -135.000004,0 0,-101 z m 59.8,53.8 c 1.76803,-1.76803 1.459228,-3.8 -0.577494,-3.8 -2.366952,0 -6.406488,2.89329 -5.680219,4.06842 0.819412,1.32584 4.835733,1.15356 6.257713,-0.26842 z m 57.950004,-11.39078 c 3.28596,-2.1254 2.7775,-4.51779 -2.402,-11.30172 -1.52477,-1.9971 -7.06411,9.58398 -5.96014,12.46086 0.71603,1.86594 4.49514,1.34209 8.36214,-1.15914 z m -55.631521,-0.65922 c 0.234641,-2.47548 -0.300972,-4.27595 -1.701099,-5.71825 -1.250311,-1.28798 -1.685306,-1.20827 -3.542708,0.64913 -2.315751,2.31575 -1.853514,3.98176 1.477651,5.32581 3.010193,1.21454 3.630712,1.17225 3.766156,-0.25669 z m 78.776131,-1.12301 c 2.20182,-2.65303 12.30117,-4.64401 22.38116,-4.41219 5.29182,0.1217 9.96619,-0.12343 10.38749,-0.54473 1.38373,-1.38373 -1.26987,-4.09026 -6.59062,-6.72206 -2.87764,-1.42337 -5.557,-3.11368 -5.95413,-3.75625 -0.70097,-1.1342 -12.19219,-3.53128 -24.81945,-5.17735 -3.64104,-0.47465 -7.44542,-1.6945 -9.21549,-2.9549 -2.81971,-2.00781 -3.20749,-2.04679 -5.9994,-0.60303 -1.64167,0.84893 -3.71252,1.54352 -4.6019,1.54352 -1.05626,0 -1.45056,0.60689 -1.13698,1.75 0.26404,0.9625 0.76161,3.42071 1.1057,5.46269 0.47134,2.79706 1.54101,4.34156 4.33732,6.2627 15.77403,10.83716 17.90314,11.80624 20.1063,9.1516 z M 246.39,159.97512 c 1.0651,-1.06881 -2.18815,-4.34241 -6.21388,-6.25274 -3.59714,-1.70695 -26.79753,-6.50339 -31.45693,-6.50339 -4.22387,0 -4.58919,3.70298 -0.75553,7.65831 2.36737,2.4425 4.28793,3.34837 8.21796,3.87617 2.82073,0.37881 5.8036,1.09574 6.6286,1.59316 1.74926,1.0547 22.48407,0.72801 23.57978,-0.37151 z M 47.012055,152.46899 c 0.111011,-2.0625 0.124467,-5.2125 0.0299,-7 -0.137806,-2.60485 0.211694,-3.25 1.760649,-3.25 2.855536,0 12.466769,3.78673 15.332347,6.0408 3.137368,2.46785 3.675265,2.45523 3.675265,-0.0863 0,-1.125 -1.138228,-3.18369 -2.529395,-4.57485 -1.961897,-1.9619 -3.342961,-2.45652 -6.155541,-2.20455 -4.289152,0.38425 -5.404667,-1.35766 -1.893849,-2.9573 1.360153,-0.61973 3.241844,-2.30017 4.181536,-3.73432 1.60863,-2.45508 1.609217,-2.81582 0.01003,-6.16935 -0.934176,-1.95898 -1.566715,-3.67473 -1.405641,-3.81277 0.431375,-0.36968 18.677191,1.27112 23.04286,2.07218 3.551773,0.65172 3.75,0.55003 3.75,-1.9237 0,-1.97829 0.630247,-2.76997 2.59838,-3.26394 2.286984,-0.57399 2.526797,-1.02569 2.00107,-3.76905 -1.095942,-5.71888 -3.880028,-7.05899 -17.662828,-8.50194 -6.840142,-0.71611 -13.979819,-1.77146 -15.865949,-2.34522 l -3.429327,-1.04321 6.929327,-1.80562 c 3.81113,-0.99309 8.279327,-1.82669 9.929327,-1.85244 5.201134,-0.0812 12.680463,2.79887 20.470057,7.88236 4.141469,2.70272 8.738747,5.4536 10.216177,6.11306 3.17552,1.41743 5.81377,0.66377 5.81377,-1.66078 0,-3.3634 -6.28739,-12.49935 -12.269037,-17.827631 -9.738634,-8.674902 -5.889437,-7.640002 4.449228,1.196225 10.956019,9.363866 18.311859,14.228296 21.515589,14.228296 2.99805,0 6.30422,-3.35484 6.30422,-6.39702 0,-2.42203 -9.09728,-11.286641 -17,-16.565226 -1.925,-1.285795 -6.65,-5.396858 -10.5,-9.135697 -7.653233,-7.432256 -21.228144,-15.618516 -27.744059,-16.730866 -2.16244,-0.369157 -4.004662,-1.065208 -4.093827,-1.54678 -0.08917,-0.481572 3.887882,-1.98615 8.837882,-3.343506 6.9314,-1.900682 12.217823,-2.567294 23.000004,-2.900275 7.7,-0.237795 14.59124,-0.642624 15.31387,-0.899619 0.81687,-0.290509 1.19514,-1.699264 1,-3.724139 -0.30984,-3.215017 -0.40383,-3.270886 -7.31387,-4.347019 -3.85,-0.599579 -8.8,-1.609569 -11.000004,-2.244423 -5.576901,-1.609325 -16.990583,-1.449139 -23.838691,0.334567 -3.167389,0.825 -6.681426,1.5 -7.80897,1.5 -5.252074,0 -8.73233,3.096548 -15.00503,13.35068 -10.683635,17.464792 -13.852253,21.492452 -20.996293,26.688588 -3.732936,2.715109 -7.476525,6.269653 -8.319086,7.898987 -2.980705,5.764047 -1.325391,15.679508 3.38667,20.286418 2.053765,2.00794 3.0814,3.98872 3.0814,5.93944 0,3.42855 3.91162,7.83589 6.954545,7.83589 1.644546,0 2.045455,0.64239 2.045455,3.27749 0,1.80263 0.60872,4.16513 1.352711,5.25 0.743992,1.08488 1.651907,5.34751 2.017589,9.47251 0.467155,5.26963 1.162559,7.87173 2.338418,8.75 2.639352,1.97138 3.277018,1.51501 3.493121,-2.5 z M 60.810216,85.333149 c 0,-0.590433 1.762091,-1.972466 3.915759,-3.071185 3.294586,-1.680773 4.444683,-1.82098 7.25,-0.883844 6.756962,2.257213 5.844597,2.932999 -5.915759,4.381784 -3.474659,0.428051 -5.25,0.283739 -5.25,-0.426755 z M 256.31022,139.71899 c 0,-1.43844 -0.77214,-2.08884 -2.75,-2.31642 -2.38379,-0.27429 -2.75,0.0342 -2.75,2.31642 0,2.28224 0.36621,2.59071 2.75,2.31642 1.97786,-0.22758 2.75,-0.87798 2.75,-2.31642 z m -158.503742,-9.25 c -0.0047,-2.19765 -3.633448,-8.25 -4.94638,-8.25 -1.063535,0 -3.049882,3.21362 -3.049882,4.93426 0,0.58616 0.9,1.96574 2,3.06574 2.504317,2.50432 6.001389,2.65012 5.996262,0.25 z M 235.64237,116.87011 c 0.38927,-2.04126 -4.41369,-7.65112 -6.55063,-7.65112 -0.73936,0 -1.57353,0.59739 -1.85372,1.32755 -0.62914,1.63952 1.27332,6.85463 2.88476,7.90782 1.97614,1.29156 5.1446,0.38214 5.51959,-1.58425 z m -13.03215,-4.85112 c 1.7759,-1.7759 1.45657,-6.50474 -0.64763,-9.5905 -1.0162,-1.49022 -2.9287,-4.408461 -4.25,-6.484965 -2.40928,-3.786318 -5.59382,-5.440652 -8.40013,-4.36377 -1.99146,0.764195 -1.85954,4.227634 0.34812,9.139235 1.64091,3.65069 2.13015,4 5.60244,4 4.32987,0 7.23181,2.81827 4.59495,4.46248 -0.79874,0.49805 -1.81124,0.68369 -2.25,0.41252 -0.43876,-0.27117 -0.79775,-0.0388 -0.79775,0.51629 0,0.923 2.74038,3.00589 4.05,3.0783 0.3025,0.0167 1.09,-0.50959 1.75,-1.16959 z m 25.2,-26.918037 c 0,-0.55 -0.45,-0.721885 -1,-0.381966 -0.55,0.339919 -1,1.068034 -1,1.618034 0,0.55 0.45,0.721885 1,0.381966 0.55,-0.339919 1,-1.068034 1,-1.618034 z m -90,-8.518876 c 8.30158,-2.952115 17.3946,-2.878958 27.24371,0.219189 1.23354,0.388025 1.5807,0.123726 1.18658,-0.903357 -0.70864,-1.846684 -11.94129,-5.678922 -16.64545,-5.678922 -4.82035,0 -15.89243,3.510188 -19.1469,6.070154 -2.99811,2.358318 -3.57665,4.556702 -0.88794,3.374108 0.9625,-0.423343 4.675,-1.809871 8.25,-3.081172 z m -28.75,-14.025371 c -0.6875,-0.277412 -1.8125,-0.277412 -2.5,0 -0.6875,0.277413 -0.125,0.504386 1.25,0.504386 1.375,0 1.9375,-0.226973 1.25,-0.504386 z M 233.26471,59.29263 c 0.72357,-1.170773 -9.5203,-2.504919 -12.34635,-1.607967 -1.15947,0.368005 -2.10814,1.088775 -2.10814,1.601712 0,1.21388 13.70447,1.219811 14.45449,0.0063 z"
       id="path3359"
       inkscape:connector-curvature="0" />
    <path
       style="fill:#4e4e4e"
       d="m 12.810216,120.21899 0,-101.000003 135.000004,0 135,0 0,101.000003 0,101 -135,0 -135.000004,0 0,-101 z m 37,66.39301 c 0,-0.21615 -0.675,-0.39301 -1.5,-0.39301 -0.825,0 -1.5,0.43588 -1.5,0.96862 0,0.53273 0.675,0.70959 1.5,0.39301 0.825,-0.31659 1.5,-0.75246 1.5,-0.96862 z m 180.517274,0.57905 c 0.79418,-1.28501 -2.7604,-4.30217 -8.07348,-6.85284 -2.23091,-1.071 -4.6689,-2.68553 -5.41775,-3.58784 -0.74885,-0.90232 -2.22864,-2.10463 -3.28842,-2.6718 -1.71154,-0.91599 -1.8456,-0.7702 -1.19957,1.30459 0.98294,3.15679 7.18388,10.05453 10.3749,11.54073 3.21975,1.49957 6.76565,1.62415 7.60432,0.26716 z M 73.057892,175.58001 c 2.155631,-0.60971 2.888568,-3.36251 3.093556,-11.61896 0.146344,-5.89442 -0.09554,-6.68499 -3.091232,-10.10323 -1.7875,-2.03963 -3.25,-4.33324 -3.25,-5.0969 0,-2.91546 -5.115165,-7.53671 -9.036234,-8.16371 l -3.853785,-0.61625 3.560738,-3.35821 c 2.349722,-2.21607 3.349877,-3.9077 2.940745,-4.97388 -2.283846,-5.95161 -2.143502,-6.17846 3.565202,-5.76263 13.221803,0.9631 20.051388,2.59409 23.484479,5.60838 2.53351,2.22445 3.954193,2.78675 5.843121,2.31266 3.389006,-0.85059 3.266066,-4.2248 -0.335059,-9.19601 -1.556936,-2.14929 -3.122158,-5.06869 -3.478272,-6.48756 -1.052624,-4.19399 -4.502706,-7.78851 -7.984266,-8.31852 -1.763668,-0.2685 -7.700026,-1.05486 -13.191907,-1.74749 l -9.985239,-1.25931 4.485239,-1.31503 c 8.594385,-2.51979 18.714341,0.1315 27.485238,7.20074 5.438279,4.38319 7.824044,5.53489 11.465644,5.53489 3.72282,0 4.79831,-2.05585 3.0414,-5.81377 -0.69073,-1.47743 -1.92592,-4.26123 -2.74488,-6.18623 -1.43919,-3.38292 -1.42667,-3.44705 0.37442,-1.91703 5.23547,4.44755 12.68357,8.01569 16.11721,7.72124 4.78491,-0.41033 8.11205,-4.60848 6.48407,-8.18152 C 127.01027,101.56395 116.50599,92.38831 109.44352,87.590337 107.7202,86.41958 103.36192,82.556786 99.758448,79.00635 95.202908,74.51786 90.080363,70.869523 82.945874,67.032239 72.8948,61.626271 72.742557,61.491715 75.497641,60.449324 c 9.729692,-3.681245 13.093978,-4.230337 25.919289,-4.230337 14.2704,0 16.39329,-0.695588 16.39329,-5.371429 0,-3.268754 -1.888,-4.627071 -6.45,-4.64044 -2.2275,-0.0065 -6.525,-0.685068 -9.55,-1.507867 -9.757858,-2.654133 -17.47656,-2.678512 -29.805673,-0.09414 -8.306162,1.7411 -11.96898,2.992991 -13.805804,4.718598 -1.375074,1.291815 -5.685759,7.534222 -9.5793,13.872016 -9.313334,15.159978 -11.674004,18.037628 -19.206566,23.412752 -8.583572,6.12511 -10.255623,9.686893 -8.840201,18.831293 0.818157,5.28575 1.743866,7.59186 4.145462,10.32713 2.017644,2.29797 3.092078,4.58678 3.092078,6.58689 0,2.17777 1.027418,4.09262 3.548719,6.61392 5.577531,5.57753 6.803238,9.34401 6.508911,20.00128 -0.255333,9.24533 -0.254213,9.25 2.221009,9.25 1.36206,0 3.036672,0.675 3.721361,1.5 3.494492,4.2106 8.274678,-1.08604 6.188022,-6.85658 -0.653412,-1.80698 -1.188022,-4.72454 -1.188022,-6.48347 0,-2.97663 0.190404,-3.15393 2.75,-2.56071 3.402247,0.78851 10.464107,4.74889 12.202167,6.84312 0.710997,0.8567 1.886065,1.55764 2.611261,1.55764 2.411407,0 2.672867,2.11957 0.541341,4.38848 -2.877113,3.06255 -2.679433,3.80095 1.63613,6.11152 5.166838,2.76635 5.177648,4.62656 0.04326,7.44523 -5.026481,2.75942 -7.784159,4.99259 -7.784159,6.3036 0,0.87556 8.085342,0.28947 12.247676,-0.88781 z m 60.002328,-12.49409 c 2.25121,-2.68665 2.20454,-4.01935 -0.25,-7.1398 -2.4651,-3.13386 -2.55859,-4.14584 -0.25,-2.70616 19.64567,12.2515 18.48881,11.79731 22.16662,8.70265 3.84499,-3.23536 9.87651,-4.06063 25.1383,-3.43959 10.7874,0.43896 18.04695,1.71293 22.31298,3.91569 1.24417,0.64243 2.22923,0.60315 2.95,-0.11762 1.62556,-1.62556 11.91363,-1.30114 16.25443,0.51257 5.43667,2.27159 17.58686,2.30837 24.67767,0.0747 5.85456,-1.84423 7.14053,-3.24229 4,-4.34865 -0.9625,-0.33907 -3.1,-1.60014 -4.75,-2.80238 -1.65,-1.20224 -4.575,-2.73884 -6.5,-3.41467 -5.11469,-1.79567 -27.8708,-6.09188 -32.30103,-6.09823 -3.39415,-0.005 -3.95612,0.36576 -5.25,3.46243 -0.79693,1.90734 -1.44897,4.35201 -1.44897,5.43261 0,4.29072 -6.75898,3.72782 -10.64146,-0.88623 -1.2708,-1.51027 -4.78867,-3.81882 -7.81748,-5.1301 -5.0953,-2.20595 -7.24274,-4.71309 -4.29106,-5.00982 1.72314,-0.17323 -15.19051,-2.63173 -23.75,-3.45221 -4.9375,-0.47329 -8.49869,-1.51231 -12.08646,-3.52639 -4.55974,-2.5597 -5.28462,-2.70544 -7,-1.40737 -1.05245,0.79641 -2.89948,1.46233 -4.10452,1.47983 -3.03065,0.044 -3.29841,0.86564 -2.0541,6.30329 0.97208,4.24799 0.87267,4.9709 -0.96034,6.98351 -4.16502,4.57314 -6.61191,11.42658 -5.06593,14.18909 1.34267,2.39923 8.55416,1.36726 11.02135,-1.57716 z m 123.3503,-14.63224 c 1.60141,-1.06929 3.3997,-4.79999 3.3997,-7.05296 0,-1.07236 -1.85273,-3.46445 -4.11718,-5.31574 -6.98774,-5.71281 -14.97132,-14.19079 -16.91328,-17.96067 -2.01072,-3.90337 -7.69135,-9.36487 -10.75051,-10.33581 -1.05182,-0.33383 -3.64142,-3.18604 -5.75469,-6.33824 -7.4323,-11.0862 -9.98567,-12.87943 -13.6356,-9.576285 -2.36404,2.139426 -2.30742,3.205605 0.50835,9.572565 3.08132,6.9674 8.56757,12.77245 12.07104,12.77245 1.81702,0 3.89104,1.2815 6.48186,4.00501 3.32525,3.49557 4.20861,3.92527 6.94454,3.37808 2.49392,-0.49878 3.28082,-0.2443 3.84964,1.24499 0.39324,1.02956 1.087,2.32192 1.5417,2.87192 3.46819,4.1951 6.71508,10.78385 7.31412,14.84215 0.58647,3.97316 1.27514,5.18387 3.83737,6.74626 3.49997,2.1342 3.68317,2.17441 5.22294,1.14628 z m -91.1003,-9.7192 c -1.65,-0.72713 -3.38554,-1.08434 -3.85676,-0.79378 -1.32014,0.81401 1.55844,2.25553 4.35676,2.18176 2.43504,-0.0642 2.42205,-0.10026 -0.5,-1.38798 z m 7.5,1.04353 c 0,-1.05548 -1.91911,-1.49891 -2.48992,-0.57533 -0.34546,0.55897 0.0734,1.01631 0.9309,1.01631 0.85746,0 1.55902,-0.19844 1.55902,-0.44098 z m 20,-9.80391 c 0,-0.55783 -0.66326,-0.44954 -1.5,0.24489 -0.825,0.68469 -1.5,1.69489 -1.5,2.24489 0,0.55783 0.66326,0.44954 1.5,-0.24489 0.825,-0.68469 1.5,-1.69489 1.5,-2.24489 z m -54.2848,-38.045536 c 1.69665,-3.132543 2.4229,-5.316066 1.67234,-5.02805 -2.05252,0.787629 -7.39557,12.267003 -7.32064,15.728196 0.0642,2.96406 0.11963,2.92174 1.35807,-1.03636 0.71015,-2.269647 2.64075,-6.618352 4.29023,-9.663786 z m 109.11622,-3.325597 c 0.64272,-2.26381 1.16858,-4.40131 1.16858,-4.75 0,-0.582144 -2.94272,-0.953245 -3.04485,-0.38398 -0.0247,0.1375 -0.28904,2.725 -0.58749,5.75 -0.6108,6.190826 0.61849,5.883463 2.46376,-0.61602 z m -37.83142,-3.824963 c 0,-0.792541 -0.41891,-1.699881 -0.9309,-2.016312 -1.18889,-0.734774 -2.38461,1.13778 -1.5691,2.457295 0.91956,1.487871 2.5,1.209092 2.5,-0.440983 z M 157.3002,77.138042 c 7.09104,-2.492301 17.45865,-2.502055 25.42093,-0.02392 6.37536,1.984238 7.24478,1.648514 4.33909,-1.675534 -4.28628,-4.903409 -17.81452,-6.564366 -28.6844,-3.521785 -4.81329,1.347288 -7.04629,2.703043 -10.8156,6.566655 -5.98004,6.129652 -6.07294,7.560698 -0.23504,3.620746 2.48323,-1.675911 6.97199,-3.910686 9.97502,-4.966166 z M 130.02095,62.718987 c -0.39723,-1.373201 -7.07676,-1.036295 -8.53103,0.430292 -0.91083,0.918548 -0.0401,1.119046 3.8203,0.879703 2.75,-0.170497 4.86983,-0.759995 4.71073,-1.309995 z m 58.78927,0.5 c 0,-0.55 -0.45,-1 -1,-1 -0.55,0 -1,0.45 -1,1 0,0.55 0.45,1 1,1 0.55,0 1,-0.45 1,-1 z m 46.97104,-3.691776 c 1.33583,-1.182494 -3.28611,-2.279334 -9.66202,-2.292911 -6.91944,-0.01474 -9.13548,0.83843 -7.79816,3.002258 0.58829,0.951872 16.30485,0.313362 17.46018,-0.709347 z M 158.31022,25.264994 c 4.49293,-0.699803 4.06791,-0.792331 -4.19098,-0.912394 -5.20108,-0.07561 -9.45928,0.300497 -9.80902,0.866387 -0.72726,1.176731 6.58612,1.200765 14,0.04601 z"
       id="path3357"
       inkscape:connector-curvature="0" />
    <path
       style="fill:#2d2d2d"
       d="m 12.810216,120.21899 0,-101.000003 135.000004,0 135,0 0,101.000003 0,101 -135,0 -135.000004,0 0,-101 z m 236.000004,74.10699 c 0,-0.49116 -0.675,-1.15203 -1.5,-1.46862 -1.52428,-0.58492 -2.04799,0.4803 -0.83333,1.69496 0.95569,0.9557 2.33333,0.82206 2.33333,-0.22634 z M 51.810216,192.31777 c 0,-0.49568 1.575,-1.8305 3.5,-2.96628 2.789592,-1.6459 3.5,-2.68719 3.5,-5.13016 0,-4.00023 -1.850293,-4.6086 -7.949315,-2.61371 -6.384158,2.08815 -6.729465,2.05945 -10.183023,-0.84653 -5.185846,-4.3636 -10.235821,0.19469 -6.511996,5.87796 0.830456,1.26744 3.452663,3.26607 5.827127,4.4414 4.328936,2.14277 11.817207,2.92683 11.817207,1.23732 z m 181.250004,-0.15136 c 7.21466,-2.00361 3.61711,-8.02223 -7.81896,-13.08095 -5.41518,-2.39539 -15.04671,-9.42255 -15.87572,-11.58291 -0.79261,-2.0655 1.19374,-4.28356 3.83606,-4.28356 1.18057,0 5.48851,1.40417 9.5732,3.12037 6.50946,2.73499 8.2362,3.05777 13.98106,2.61348 3.6049,-0.27878 7.67936,-1.01463 9.05436,-1.63521 5.37843,-2.42746 8.5,-4.84063 8.5,-6.57102 0,-1.8371 -0.78961,-2.43886 -5.80639,-4.42505 -3.81298,-1.5096 -2.67003,-2.7806 3.23016,-3.59209 6.64532,-0.91396 8.18139,-2.26381 8.79763,-7.73109 0.61832,-5.48577 -0.25968,-6.97547 -7.47063,-12.6754 -4.84446,-3.82932 -9.01908,-8.63299 -15.25077,-17.54878 -1.375,-1.96724 -4.57981,-4.88229 -7.1218,-6.47788 -2.54199,-1.5956 -5.91699,-4.78723 -7.5,-7.09253 -7.85605,-11.440562 -11.28486,-13.300021 -16.13059,-8.747691 l -2.3813,2.237111 -1.91092,-2.487111 c -2.4885,-3.238851 -2.42983,-2.674574 0.45934,4.418148 1.94408,4.772573 2.47628,5.443903 2.7746,3.500003 0.31587,-2.058248 0.69664,-1.683896 2.63925,2.59474 2.4046,5.29619 8.68443,12.5 10.89671,12.5 0.72567,0 3.27217,1.8 5.65888,4 2.69677,2.48579 5.30453,4 6.88877,4 2.64597,0 7.72706,4.93178 7.72706,7.5 0,0.7406 1.06791,2.61858 2.37312,4.17327 1.30522,1.5547 2.69309,4.72929 3.08417,7.05463 0.49003,2.91375 1.53966,4.83327 3.37687,6.17548 l 2.66584,1.94757 -2.8151,1.07453 c -3.53302,1.34855 -6.56237,1.3618 -10.33914,0.0452 -4.6733,-1.62912 -32.60362,-6.52276 -35.12995,-6.15507 -1.34806,0.1962 -3.27815,1.90698 -4.70948,4.17435 -1.33391,2.11305 -2.91225,4.14287 -3.50742,4.51071 -0.59518,0.36783 -4.94025,-1.24243 -9.65573,-3.57837 l -8.5736,-4.24715 6.11521,-2.77591 c 6.23073,-2.82835 8.13172,-5.00739 3.61521,-4.144 -3.60803,0.68972 -3.09012,-0.34319 1.75,-3.49014 6.17209,-4.01297 8.49696,-7.26511 5.19363,-7.26511 -0.856,0 -2.7685,1.31773 -4.25,2.92829 -1.4815,1.61055 -3.93113,3.23434 -5.44363,3.6084 -2.78481,0.68873 -3.65335,2.78697 -1.66287,4.01716 1.615,0.99813 -0.11594,2.20397 -4.25501,2.96422 -3.30091,0.6063 -3.70112,0.44382 -4,-1.62392 -0.27572,-1.90742 -1.01142,-2.33925 -4.33212,-2.54281 -6.83217,-0.41881 -9.92586,-0.9737 -12.19277,-2.18692 -1.59746,-0.85493 -2.37127,-0.86982 -2.87466,-0.0553 -0.71735,1.16071 1.19578,2.84907 3.25841,2.87559 0.65504,0.008 1.49884,0.51343 1.87511,1.12224 0.46977,0.76011 -0.21672,0.91053 -2.19098,0.48008 -1.58131,-0.34477 -5.21416,-0.79178 -8.07299,-0.99336 -3.33928,-0.23545 -6.15866,-1.12225 -7.88486,-2.48007 -2.90826,-2.28764 -5.44893,-2.65224 -8.18083,-1.17398 -0.95504,0.51678 -3.02242,1.21252 -4.59419,1.5461 -2.52193,0.53522 -2.77922,0.92426 -2.18941,3.3104 1.80197,7.28996 1.74043,7.81727 -1.46683,12.56954 -3.698,5.47939 -4.94592,11.5928 -2.74012,13.42346 0.7993,0.66336 3.53151,1.41641 6.07157,1.67343 3.91775,0.39642 4.85069,0.1355 6.15042,-1.72012 0.84267,-1.20308 1.53213,-3.43729 1.53213,-4.96492 0,-3.60662 1.31187,-3.48323 7.95366,0.74811 6.3798,4.06442 8.5509,4.28952 11.80936,1.2244 2.19533,-2.06507 3.50818,-2.27716 15.9729,-2.58043 11.05405,-0.26894 14.34225,-0.0141 17.67252,1.36972 7.16882,2.97881 8.016,3.29821 11.93161,4.49831 2.86299,0.87748 4.58047,2.34446 6.75,5.76545 1.60047,2.52368 2.90995,5.17411 2.90995,5.88985 0,3.04521 13.97464,15.31935 17.42144,15.30152 0.59321,-0.003 2.76606,-0.47422 4.82856,-1.047 z m -105.25,-9.3884 c 0,-2.66793 -1.48734,-4.19754 -2.49545,-2.56638 -0.81265,1.31489 0.3398,5.00736 1.56284,5.00736 0.51293,0 0.93261,-1.09844 0.93261,-2.44098 z m -59.045688,-4.55902 c 2.181096,0 4.771541,-0.76718 6.029241,-1.7856 1.93191,-1.56437 2.22441,-2.83434 2.360784,-10.25 l 0.155659,-8.4644 -4.932953,-7.87747 c -3.65816,-5.84174 -5.816944,-8.24682 -8.35365,-9.30673 -3.084988,-1.28899 -3.278231,-1.59543 -1.969046,-3.12253 2.249041,-2.62338 2.785972,-4.98331 1.752347,-7.70195 -0.946993,-2.49078 -0.945849,-2.49132 5.317954,-2.49132 3.445833,0 8.947195,0.68484 12.225249,1.52186 5.617965,1.4345 7.481242,2.74464 10.035519,7.05636 1.029385,1.73764 1.232712,1.74071 4.75,0.0717 5.145474,-2.44169 4.938064,-4.05567 -2.060678,-16.03547 -0.679392,-1.16292 -1.241892,-2.9419 -1.25,-3.9533 -0.0131,-1.63394 0.316943,-1.55979 2.961303,0.66529 8.004589,6.73542 16.879419,3.09615 12.605329,-5.16903 -0.86976,-1.68197 -1.58137,-3.31192 -1.58137,-3.62215 0,-0.31023 2.68716,0.79242 5.97148,2.45034 6.98981,3.52844 10.81059,3.79773 13.83996,0.97544 2.81462,-2.62222 2.75493,-6.76731 -0.14343,-9.96104 -2.71501,-2.991705 -12.59592,-11.390201 -18.16801,-15.442316 -2.2,-1.599874 -6.475,-5.299111 -9.500004,-8.220527 -3.025,-2.921415 -9.094975,-7.359876 -13.488833,-9.863246 -9.209213,-5.246883 -10.420372,-6.230706 -8.428384,-6.846364 0.779469,-0.240908 3.768392,-1.161097 6.642051,-2.044864 3.551597,-1.09226 9.561885,-1.657044 18.76767,-1.763589 8.33455,-0.09646 13.86759,-0.572538 14.38728,-1.237919 0.46444,-0.594648 1.12181,-2.245919 1.4608,-3.669491 1.023,-4.295944 -1.1597,-6.002899 -8.89624,-6.957186 -3.81939,-0.471114 -8.74434,-1.31787 -10.944344,-1.88168 -5.776696,-1.480434 -17.611905,-1.300944 -24.794484,0.376029 -3.413034,0.796867 -7.809279,1.701548 -9.769433,2.010403 -4.704301,0.741241 -7.911685,4.323335 -16.839225,18.806511 -8.968765,14.550054 -10.582084,16.47776 -18.547317,22.161632 -8.219909,5.865606 -10.143375,10.156427 -8.665785,19.331417 0.547288,3.39836 1.905561,8.23714 3.018384,10.75286 1.112822,2.51573 2.311801,6.24226 2.664397,8.28119 0.352596,2.03893 1.218869,5.50714 1.925051,7.70714 0.706182,2.2 1.612722,7.785 2.014532,12.41111 1.279083,14.72629 4.255142,18.08889 16.00951,18.08889 4.749461,0 5.944817,-0.39379 8.032119,-2.64602 3.034034,-3.27378 3.032454,-3.511 -0.04775,-7.17161 -2.69043,-3.1974 -3.391072,-8.18237 -1.150037,-8.18237 1.22557,0 5.043431,2.5808 11.558673,7.81345 l 2.408635,1.93447 -2.158635,1.84828 c -3.138662,2.68741 -2.671514,4.21478 1.841365,6.02048 5.857777,2.34381 5.240484,4.42001 -2.679214,9.01123 -3.673568,2.12965 -6.836258,4.36016 -7.028201,4.95669 -0.550109,1.70966 3.894792,3.26438 6.522515,2.28142 1.273304,-0.47631 4.035952,-0.86602 6.139216,-0.86602 z m 8.487663,-70.90612 c 0.308007,-0.49837 1.459565,-0.67089 2.559017,-0.38337 2.75155,0.71955 2.504029,1.28949 -0.560013,1.28949 -1.407459,0 -2.307011,-0.40776 -1.999004,-0.90612 z m 100.246675,25.5508 c 1.18857,-1.18856 -0.15025,-1.36813 -6.54119,-0.87732 -4.28623,0.32917 -5.9126,0.78602 -5,1.4045 1.43584,0.9731 10.45279,0.56122 11.54119,-0.52718 z m -30.68865,-4.67986 c 0,-1.50495 -3.07677,-5.96482 -4.11501,-5.96482 -1.37314,0 -1.04628,2.32471 0.67171,4.77749 1.63105,2.32865 3.4433,2.95355 3.4433,1.18733 z m 64,-5.52384 c 0,-1.65007 -1.58044,-1.92885 -2.5,-0.44098 -0.81551,1.31952 0.38021,3.19207 1.5691,2.45729 0.51199,-0.31643 0.9309,-1.22377 0.9309,-2.01631 z m -11.03063,-5.44098 c 0,-1.33334 -0.1077,-1.33334 -0.96937,0 -0.53316,0.825 -0.96937,2.175 -0.96937,3 0,1.33333 0.1077,1.33333 0.96937,0 0.53316,-0.825 0.96937,-2.175 0.96937,-3 z M 137.64593,95.188284 c 1.19811,-2.491887 3.5373,-6.179306 5.1982,-8.194266 3.72939,-4.5244 15.01261,-10.318682 21.95215,-11.273113 6.66176,-0.916227 16.02523,0.878656 23.54585,4.513504 3.25776,1.574536 6.09137,2.694629 6.29691,2.489096 0.20553,-0.205534 -1.65621,-2.540632 -4.1372,-5.189108 -3.72291,-3.974223 -5.6683,-5.144534 -11.13645,-6.699495 -8.16997,-2.323264 -16.84808,-1.836071 -24.28544,1.363394 -6.36681,2.738932 -16.99989,14.094319 -20.75886,22.169016 -2.83774,6.095798 -3.43844,17.030798 -1.26087,22.952448 1.17361,3.1915 1.28536,2.75756 1.82866,-7.10077 0.43271,-7.85153 1.12814,-11.642809 2.75705,-15.030706 z m 3.5484,21.280706 c -1.08267,-4.5525 -2.3185,-6.17062 -2.3537,-3.08179 -0.0374,3.28059 0.87938,5.83179 2.09563,5.83179 0.50164,0 0.61776,-1.2375 0.25807,-2.75 z m 59.27817,-4.5 c -0.27741,-0.6875 -0.50439,-0.125 -0.50439,1.25 0,1.375 0.22698,1.9375 0.50439,1.25 0.27741,-0.6875 0.27741,-1.8125 0,-2.5 z m 47.40357,-21.042225 c 0.61611,-2.314278 1.80792,-4.978518 2.64846,-5.920533 2.16234,-2.423395 0.90847,-4.787245 -2.53933,-4.787245 -2.84957,0 -2.89648,0.0936 -3.54516,7.073188 -0.36157,3.890254 -0.39509,7.497594 -0.0745,8.016312 1.01331,1.639556 2.35257,-0.03206 3.51054,-4.381722 z m -37.24194,-6.043668 c 0.39322,-2.027568 -2.53171,-3.356312 -4.04875,-1.839274 -0.7872,0.787201 -0.72677,1.52854 0.21731,2.666087 1.56159,1.881599 3.38238,1.488678 3.83144,-0.826813 z M 130.87347,63.642772 c 1.08406,-1.306211 1.06221,-1.736687 -0.12755,-2.513004 -0.78964,-0.515234 -2.3357,-0.712081 -3.4357,-0.437439 -1.1,0.274642 -2.9,0.512384 -4,0.528316 -2.76576,0.04006 -4.89487,1.550408 -4.0691,2.886539 1.07787,1.744031 10.0984,1.383894 11.63235,-0.464412 z m 44.81609,-0.05182 c 1.61391,-1.130428 1.9604,-1.852972 1.13361,-2.363956 -0.8986,-0.555367 -20.16442,-0.621466 -25.26295,-0.08667 -0.4125,0.04327 -0.75,0.689383 -0.75,1.435812 0,1.569393 10.36291,1.987373 13.16267,0.530905 1.04816,-0.545264 2.89612,-0.329288 5,0.584364 4.2087,1.827714 3.95848,1.831456 6.71667,-0.100451 z m 13.93377,-0.621965 c 0.25574,-1.341789 -0.34448,-1.75 -2.57312,-1.75 -3.58044,0 -4.58188,0.88312 -3.06882,2.706248 1.54207,1.858081 5.2245,1.233949 5.64194,-0.956248 z m -83.56311,0.587719 c -0.6875,-0.277412 -1.8125,-0.277412 -2.5,0 -0.6875,0.277413 -0.125,0.504386 1.25,0.504386 1.375,0 1.9375,-0.226973 1.25,-0.504386 z m 10.75,-2.896736 c 0,-1.451367 -0.43284,-2.291506 -1,-1.940983 -0.55,0.339919 -1,1.491476 -1,2.559017 0,1.067541 0.45,1.940983 1,1.940983 0.55,0 1,-1.151558 1,-2.559017 z m 119.79733,-0.294567 c 1.02361,-0.649318 0.93843,-1.120826 -0.40369,-2.234687 -1.16215,-0.964497 -4.31871,-1.411729 -9.964,-1.411729 -8.69292,0 -10.04975,0.441625 -9.08456,2.956872 0.47216,1.230447 2.37151,1.540025 9.37354,1.527815 4.82976,-0.0084 9.36518,-0.385644 10.07871,-0.838271 z m -62.79733,-35.08327 5.5,-0.709074 -7.5339,-0.774274 c -8.41233,-0.864551 -28.4306,-0.454705 -29.48529,0.603671 -0.37459,0.375908 -0.37233,1.183032 0.005,1.79361 0.70396,1.138998 19.91099,0.581981 31.51419,-0.913933 z"
       id="path3355"
       inkscape:connector-curvature="0" />
    <path
       style="fill:#070707"
       d="m 12.810216,120.21899 0,-101.000003 135.000004,0 135,0 0,101.000003 0,101 -135,0 -135.000004,0 0,-101 z M 248.0508,200.84073 c 5.6987,-0.6983 11.6643,-4.43398 15.17831,-9.5047 3.01496,-4.35059 3.11575,-5.00562 1.00738,-6.54729 -1.42409,-1.04133 -1.4067,-1.44177 0.18292,-4.21153 1.51664,-2.64259 1.58034,-3.48645 0.46619,-6.17625 -0.70976,-1.7135 -2.14208,-3.38575 -3.18293,-3.7161 -2.24188,-0.71155 -2.55376,-3.46587 -0.39245,-3.46587 1.26034,0 1.5,-2.18891 1.5,-13.70022 l 0,-13.70023 -9.40266,-9.04977 c -5.17147,-4.97738 -10.77006,-11.11748 -12.44132,-13.64467 -2.83871,-4.29254 -5.58788,-6.95941 -13.15214,-12.7584 -1.6883,-1.29431 -4.86804,-5.001551 -7.06608,-8.23831 -2.46319,-3.627205 -4.94433,-6.122921 -6.46712,-6.505118 -1.87463,-0.470501 -2.47068,-1.28031 -2.47068,-3.356705 0,-1.506028 -0.93996,-3.587257 -2.09032,-4.628317 -2.04064,-1.846757 -2.12281,-1.847272 -3.45772,-0.02168 -1.15722,1.582588 -1.155,2.37839 0.0144,5.177251 1.12226,2.68594 1.14066,3.507388 0.0979,4.37277 -0.97079,0.805679 -1.92026,0.147302 -3.89312,-2.699539 -5.41987,-7.820871 -15.09617,-16.154274 -21.29332,-18.338195 -7.77671,-2.740565 -19.58758,-2.235625 -26.77245,1.144581 -8.81238,4.145881 -21.73073,19.809651 -23.12017,28.033674 l -0.66086,3.911578 -9.41057,-8.499355 c -5.17573,-4.674641 -9.85797,-8.499348 -10.40488,-8.499348 -0.54691,0 -4.71015,-3.422565 -9.25164,-7.605699 -4.541489,-4.183134 -9.944754,-8.46728 -12.007254,-9.520324 -4.989888,-2.54767 -4.733115,-3.873977 0.75,-3.873977 2.688688,0 4.5,-0.456599 4.5,-1.134367 0,-0.784187 -2.135187,-0.981596 -6.91667,-0.639483 -3.804168,0.272187 -7.503636,0.13212 -8.22104,-0.311259 -1.698169,-1.049527 -1.342838,-1.288943 4.845965,-3.265128 5.732518,-1.830486 27.872579,-3.136998 28.762369,-1.697302 0.29903,0.483839 0.10766,2.026538 -0.42526,3.428221 -0.57748,1.518886 -0.60107,2.775873 -0.0584,3.111267 0.5008,0.309514 4.4211,0.818163 8.71178,1.130332 8.49178,0.61782 12.23844,-0.7376 10.9951,-3.977673 -0.49556,-1.291438 -2.01918,-1.644608 -7.09508,-1.644608 -7.31177,0 -8.31124,-1.028952 -6.64452,-6.840477 1.44863,-5.051089 -0.13865,-8.155858 -4.1795,-8.175191 -1.80112,-0.0086 -7.50556,-0.908617 -12.67654,-2 -11.140178,-2.351234 -18.779609,-2.502512 -27.900809,-0.5525 -3.683573,0.787507 -8.360086,1.703242 -10.392251,2.034966 -5.084029,0.8299 -8.629066,4.713764 -17.946793,19.662107 -7.44374,11.941924 -10.625116,15.569814 -20.847987,23.774056 -7.455317,5.983174 -8.463003,12.605942 -4.351179,28.597042 4.963814,19.30454 8.708461,48.15189 7.860863,60.55713 -0.572206,8.37467 -0.428254,9.82177 1.163472,11.6961 3.025006,3.56208 16.915637,10.24677 21.29255,10.24677 4.760998,0 7.416484,-2.29977 6.566397,-5.68678 -0.529576,-2.11 -0.02589,-2.65085 4.177672,-4.48592 6.10845,-2.66665 5.961612,-2.45466 3.231462,-4.6654 l -2.331714,-1.88811 2.156435,-1.15409 c 1.23598,-0.66147 3.782401,-0.89408 5.96573,-0.54496 2.874547,0.45966 4.355423,0.15715 6.034886,-1.2328 1.980998,-1.63951 2.241713,-2.84861 2.372282,-11.00178 0.121222,-7.56949 -0.220574,-9.86446 -1.968613,-13.21814 -3.772521,-7.23774 -6.930241,-11.73355 -10.135761,-14.43082 -2.616743,-2.20185 -2.966082,-2.96987 -2.092938,-4.60136 0.576445,-1.0771 1.048082,-3.11294 1.048082,-4.5241 0,-2.5015 0.169399,-2.56574 6.765602,-2.56574 7.396442,0 12.941059,2.158 14.77344,5.74992 2.96188,5.80601 4.646466,6.31914 9.849291,3.00008 2.884641,-1.84021 3.534721,-2.87145 3.569341,-5.66214 0.0238,-1.91728 -1.071397,-5.31257 -2.499828,-7.75 -2.841611,-4.84884 -2.448788,-5.2394 2.335778,-2.32229 3.56922,2.17612 5.24821,1.80566 8.59945,-1.89742 1.46802,-1.62214 1.73115,-2.93981 1.22241,-6.12132 l -0.6483,-4.05422 3.97658,2.02869 c 5.02838,2.5653 10.07468,2.58863 13.28747,0.0614 2.855,-2.24574 3.75945,-1.79625 3.79073,1.88392 0.027,3.17436 3.23891,10.4255 6.52834,14.73817 2.91679,3.8241 2.99114,4.25936 0.6997,4.09642 -1.87684,-0.13346 -11.16287,3.06778 -12.64528,4.35931 -0.52137,0.45423 -0.36594,2.67061 0.37215,5.30681 1.22706,4.38265 1.16396,4.68807 -1.98152,9.58987 -4.03329,6.28533 -5.03343,12.74682 -2.34751,15.16629 2.22075,2.00044 11.64647,5.82646 14.354,5.82646 2.76735,0 4.11768,-3.09646 3.01976,-6.92468 -1.27783,-4.45554 0.7107,-4.90255 6.55997,-1.47465 4.66994,2.73677 4.75952,2.74779 9.31685,1.14642 3.26109,-1.14588 8.53429,-1.65716 18.10158,-1.75509 13.61155,-0.13933 16.14402,0.2309 25.80454,3.77244 5.9222,2.17107 6.67624,2.76102 7.65045,5.98556 0.5682,1.88068 0.2994,2.25108 -1.6376,2.25659 -1.27457,0.004 -3.66739,0.90066 -5.31739,1.99341 -1.65,1.09275 -3.675,1.99418 -4.5,2.00318 -0.825,0.009 -3.79237,1.08377 -6.59416,2.38838 -4.80841,2.23897 -5.06773,2.55208 -4.62301,5.58216 0.56695,3.86284 3.88798,6.14809 11.63582,8.00676 6.19014,1.485 8.58135,0.94754 8.58135,-1.92877 0,-1.34486 -1.34675,-2.69812 -4.06543,-4.08509 -4.84218,-2.4703 -4.6759,-4.34894 0.42297,-4.77879 8.53208,-0.71928 20.5539,5.27352 28.83537,14.37425 4.0696,4.47218 8.41041,5.70956 11.80709,3.36569 1.375,-0.94882 4.63326,-1.98653 7.24058,-2.30603 z m 1.75942,-22.01475 c 0,-1.69554 2.70442,-2.89426 3.52699,-1.56332 0.32508,0.52598 0.31293,1.40633 -0.027,1.95633 -0.92405,1.49514 -3.5,1.20589 -3.5,-0.39301 z M 40.407679,174.32072 c -2.310081,-2.41121 -2.593781,-3.24009 -1.688152,-4.93228 1.309426,-2.44668 4.079927,-3.46124 7.267261,-2.66127 1.290662,0.32394 4.014477,-0.10789 6.052924,-0.9596 6.771387,-2.82927 16.242958,-1.41711 13.963302,2.08185 -1.249898,1.91842 -17.18016,9.36957 -20.031766,9.36957 -1.769388,0 -3.800612,-1.05814 -5.563569,-2.89827 z m 183.040911,-0.60173 c -0.7383,-1.924 1.3959,-1.94131 3.9205,-0.0318 1.86537,1.41089 1.83798,1.46943 -0.70188,1.5 -1.45366,0.0175 -2.90203,-0.6432 -3.21862,-1.4682 z m -11.13837,-5.5 c -0.33992,-0.55 0.28197,-1 1.38197,-1 1.1,0 2.27811,0.45 2.61803,1 0.33992,0.55 -0.28197,1 -1.38197,1 -1.1,0 -2.27811,-0.45 -2.61803,-1 z m -26.97584,-19.5963 c -5.74357,-2.10247 -6.19033,-3.02874 -2.11028,-4.37528 4.94983,-1.63359 13.59628,-8.88988 18.16268,-15.24251 2.08979,-2.90725 3.94462,-5.47806 4.12186,-5.71291 0.17723,-0.23485 0.92752,0.40077 1.6673,1.41248 1.84792,2.52717 4.63428,1.28218 4.63428,-2.07067 0,-2.30645 -0.3324,-2.58442 -2.57731,-2.15528 -2.22004,0.42439 -2.50675,0.19795 -2.06828,-1.63343 0.27997,-1.16935 0.81484,-3.8136 1.18861,-5.8761 0.81169,-4.47911 1.66545,-4.67034 4.3045,-0.96415 1.09103,1.53222 3.13316,3.40103 4.53805,4.15291 1.40489,0.75187 3.75407,3.09824 5.22039,5.21414 1.85429,2.67574 3.40585,3.8471 5.09578,3.8471 3.58927,0 6.07635,1.66111 7.90488,5.27964 0.89503,1.7712 2.39824,4.12036 3.34046,5.22036 0.94222,1.1 2.24166,3.85912 2.88763,6.13137 0.64597,2.27226 1.84742,4.68986 2.66989,5.37245 0.82247,0.68259 1.4954,1.63597 1.4954,2.11862 0,1.17192 -6.37997,1.11635 -10.88398,-0.0948 -1.98881,-0.5348 -9.85927,-2.13439 -17.48991,-3.55463 -15.29587,-2.84694 -18.17982,-2.58138 -21.78847,2.00628 -2.22964,2.83452 -4.53172,3.04086 -10.31348,0.92442 z m -10.16903,-9.1537 c -0.77167,-2.95087 -0.40932,-3.72534 2.05084,-4.38328 2.06917,-0.55338 2.35221,-0.30105 2.2434,2 -0.1869,3.95257 -3.41531,5.74432 -4.29424,2.38328 z m -29.7642,-6.27295 c -6.68894,-6.16564 -9.06715,-12.44918 -9.07492,-23.97705 -0.006,-8.37132 0.30949,-10.094046 2.6524,-14.500003 3.55227,-6.680235 9.0514,-11.797569 16.33159,-15.197738 5.11072,-2.386928 7.25982,-2.799563 14.5,-2.784051 7.44032,0.01594 9.31034,0.407181 15,3.138259 8.34541,4.005859 12.44223,7.916711 15.80073,15.083492 2.35667,5.028949 2.69275,6.965821 2.6479,15.260041 -0.0433,8.00092 -0.43777,10.28104 -2.5,14.44966 -2.71956,5.49732 -4.42318,6.66765 -5.22769,3.59123 -0.7761,-2.96784 -2.87098,-2.51304 -6.72094,1.45911 -1.86578,1.925 -4.2738,3.5 -5.35115,3.5 -1.89748,0 -1.90197,-0.0628 -0.1433,-2.00613 0.99854,-1.10337 1.63078,-2.17618 1.40499,-2.38402 -0.73049,-0.67238 -24.72246,0.86565 -25.48926,1.63402 -0.40829,0.40913 0.11739,1.71727 1.16818,2.90699 2.11004,2.389 2.38498,2.37616 -4.64854,0.21706 -1.55389,-0.477 -2.19587,-0.10898 -2.61663,1.5 -0.8165,3.12228 -2.82842,2.63035 -7.73336,-1.89087 z m 3.03434,-3.44291 c 0.30938,-0.80622 -0.78207,-3.45814 -2.42543,-5.89314 -1.64337,-2.43501 -3.29316,-6.23387 -3.6662,-8.44191 -0.37305,-2.20805 -1.31218,-4.84363 -2.08695,-5.85686 -1.22771,-1.60556 -1.54232,-1.64953 -2.44888,-0.34223 -2.07108,2.98657 1.29528,15.08356 5.32911,19.15013 3.16847,3.19418 4.47296,3.53494 5.29835,1.38401 z m 52.88585,-11.5588 c 1.45821,-3.23372 1.63544,-4.91576 0.90187,-8.55901 -0.50214,-2.4939 -1.35949,-4.6203 -1.90521,-4.72535 -0.54571,-0.10504 -1.53706,2.50902 -2.20298,5.80902 -0.66592,3.3 -1.50939,7.2375 -1.87436,8.75 -0.55308,2.29204 -0.33641,2.75 1.30111,2.75 1.32687,0 2.55389,-1.30659 3.77957,-4.02466 z m -61.01112,-12.97534 c 0.33992,-0.55 0.14148,-1 -0.44098,-1 -0.58246,0 -1.05902,0.45 -1.05902,1 0,0.55 0.19844,1 0.44098,1 0.24254,0 0.7191,-0.45 1.05902,-1 z m 4.0534,86.91359 c 0.90452,-1.46353 -5.46544,-7.91359 -7.81531,-7.91359 -2.66461,0 -5.73809,-1.8342 -5.73809,-3.4244 0,-0.74472 -0.87097,-2.41638 -1.93549,-3.71482 -1.71625,-2.09337 -2.10132,-2.19087 -3.39956,-0.86078 -2.50717,2.5687 -2.9806,7.40176 -0.95831,9.78315 4.39329,5.1734 17.86621,9.33504 19.84676,6.13044 z m -34.51919,-51.97751 c 1.40912,-2.63298 -0.29702,-4.93608 -3.65666,-4.93608 -1.81426,0 -2.37755,0.54492 -2.37755,2.3 0,4.47669 4.09235,6.26446 6.03421,2.63608 z M 248.49741,92.31478 c 0.69956,-2.416226 1.99229,-5.189126 2.87273,-6.162 2.36788,-2.616485 1.45994,-6.211453 -1.86269,-7.375269 -4.89936,-1.716094 -6.11914,0.0162 -6.34291,9.00804 -0.10786,4.334222 0.0352,8.254752 0.31802,8.712288 1.26104,2.040405 3.83449,-0.106197 5.01485,-4.183059 z M 104.50286,75.126346 c 0.78726,-0.787266 1.65967,-0.789173 3.1215,-0.0068 1.11588,0.5972 4.42669,0.976388 7.35737,0.842641 5.19984,-0.237329 5.32849,-0.315632 5.32849,-3.2432 l 0,-3 -8.78651,0 c -9.13461,0 -10.66255,0.678409 -10.69818,4.75 -0.0172,1.960732 2.01134,2.323346 3.67733,0.657359 z M 110.51554,64.847 c 1.44294,-1.442941 -2.0501,-3.122752 -6.30277,-3.031011 -5.113655,0.110314 -7.818208,1.859582 -5.394195,3.488892 1.555385,1.045458 10.545545,0.693536 11.696965,-0.457881 z m 80.11337,-0.926052 c 0.52992,-2.750157 -1.70422,-4.701961 -5.38212,-4.701961 -1.82519,0 -3.59665,-0.45 -3.93657,-1 -0.76148,-1.232099 -5.18146,-1.32443 -5.92353,-0.123739 -0.29785,0.481943 -5.21877,0.88396 -10.93537,0.893371 -12.64479,0.02081 -14.6411,0.543858 -14.6411,3.836028 l 0,2.470886 10.00806,-0.196876 c 5.50444,-0.108281 10.19201,-0.013 10.41683,0.211727 0.22481,0.224732 4.82743,0.408603 10.22804,0.408603 8.65653,0 9.86032,-0.212918 10.16576,-1.798039 z m 47.43131,-2.860671 c 5.06809,-2.640205 -0.59249,-5.259927 -11.463,-5.30509 -6.80626,-0.02828 -9.07524,0.325766 -10.36832,1.617839 -1.86881,1.867354 -1.19065,3.624839 1.82987,4.742201 2.58391,0.955852 17.66884,0.160217 20.00145,-1.05495 z m -12.75,-9.84129 c 0.37325,-0.603931 -0.98962,-1 -3.44098,-1 -2.23246,0 -4.05902,0.45 -4.05902,1 0,0.55 1.54844,1 3.44098,1 1.89254,0 3.7191,-0.45 4.05902,-1 z m -103.25,-18.662281 c -0.6875,-0.277412 -1.8125,-0.277412 -2.5,0 -0.6875,0.277413 -0.125,0.504386 1.25,0.504386 1.375,0 1.9375,-0.226973 1.25,-0.504386 z m 56.04232,-5.747697 c 12.11377,-0.323225 14.85564,-0.775398 13.41819,-2.212849 -2.42457,-2.424563 -48.58139,-2.906292 -50.95587,-0.531816 -0.56111,0.561114 -0.7411,1.747544 -0.39997,2.636509 0.54187,1.412093 2.16952,1.542592 12.88278,1.032894 6.7444,-0.320874 18.01909,-0.737006 25.05487,-0.924738 z"
       id="path3353"
       inkscape:connector-curvature="0" />
  </g>
</svg>
